HIERARCHY
ROOT Hips
{
	OFFSET 0.000000 0.000000 0.000000
	CHANNELS 6 Xposition Yposition Zposition Xrotation Yrotation Zrotation
	JOINT LeftUpLeg_virtual
	{
		OFFSET 0.000000 0.000000 0.000000
		CHANNELS 3 Xrotation Yrotation Zrotation
		JOINT LeftUpLeg
		{
			OFFSET 10.205400 -3.823500 0.155100
			CHANNELS 3 Xrotation Yrotation Zrotation
			JOINT LeftLeg
			{
				OFFSET 0.708757 -12.982077 0.567790
				CHANNELS 3 Xrotation Yrotation Zrotation
				JOINT LeftFoot
				{
					OFFSET -0.708756 -10.717838 -2.184338
					CHANNELS 3 Xrotation Yrotation Zrotation
					JOINT LeftToeBase
					{
						OFFSET 0.108149 -7.191104 7.560241
						CHANNELS 3 Xrotation Yrotation Zrotation
						JOINT LeftToe_End
						{
							OFFSET 0.070230 0.081724 4.490308
							CHANNELS 3 Xrotation Yrotation Zrotation
							End Site
							{
								OFFSET 0 0 0
							}
						}
					}
				}
			}
		}
	}
	JOINT RightUpLeg_virtual
	{
		OFFSET 0.000000 0.000000 0.000000
		CHANNELS 3 Xrotation Yrotation Zrotation
		JOINT RightUpLeg
		{
			OFFSET -10.205400 -3.823500 0.005500
			CHANNELS 3 Xrotation Yrotation Zrotation
			JOINT RightLeg
			{
				OFFSET -0.708756 -12.982134 0.610632
				CHANNELS 3 Xrotation Yrotation Zrotation
				JOINT RightFoot
				{
					OFFSET 0.708754 -10.717769 -1.945823
					CHANNELS 3 Xrotation Yrotation Zrotation
					JOINT RightToeBase
					{
						OFFSET -0.108140 -7.191069 7.372968
						CHANNELS 3 Xrotation Yrotation Zrotation
						JOINT RightToe_End
						{
							OFFSET -0.070227 0.081735 4.479403
							CHANNELS 3 Xrotation Yrotation Zrotation
							End Site
							{
								OFFSET 0 0 0
							}
						}
					}
				}
			}
		}
	}
	JOINT Spine_virtual
	{
		OFFSET 0.000000 0.000000 0.000000
		CHANNELS 3 Xrotation Yrotation Zrotation
		JOINT Spine
		{
			OFFSET 0.000000 6.876099 0.125700
			CHANNELS 3 Xrotation Yrotation Zrotation
			JOINT Spine1
			{
				OFFSET 0.000000 5.730043 0.104720
				CHANNELS 3 Xrotation Yrotation Zrotation
				JOINT Spine1_split
				{
					OFFSET 0.000000 5.730043 0.104720
					CHANNELS 3 Xrotation Yrotation Zrotation
					JOINT Spine2
					{
						OFFSET 0.000000 5.730043 0.104720
						CHANNELS 3 Xrotation Yrotation Zrotation
						JOINT Neck_virtual
						{
							OFFSET 0.000000 0.000000 0.000000
							CHANNELS 3 Xrotation Yrotation Zrotation
							JOINT Neck
							{
								OFFSET 0.000000 10.314075 0.188496
								CHANNELS 3 Xrotation Yrotation Zrotation
								JOINT Head
								{
									OFFSET 0.000000 7.643700 -2.377400
									CHANNELS 3 Xrotation Yrotation Zrotation
									JOINT HeadTop_End
									{
										OFFSET 0.000000 43.788605 -13.619600
										CHANNELS 3 Xrotation Yrotation Zrotation
										End Site
										{
											OFFSET 0 0 0
										}
									}
								}
							}
						}
						JOINT LeftShoulder_virtual
						{
							OFFSET 0.000000 0.000000 0.000000
							CHANNELS 3 Xrotation Yrotation Zrotation
							JOINT LeftShoulder
							{
								OFFSET 2.196100 4.412489 0.087492
								CHANNELS 3 Xrotation Yrotation Zrotation
								JOINT LeftShoulder_split
								{
									OFFSET 2.196100 4.412489 0.087492
									CHANNELS 3 Xrotation Yrotation Zrotation
									JOINT LeftArm
									{
										OFFSET 8.771219 -2.981674 -0.026999
										CHANNELS 3 Xrotation Yrotation Zrotation
										JOINT LeftForeArm
										{
											OFFSET 8.512804 0.000000 -0.000000
											CHANNELS 3 Xrotation Yrotation Zrotation
											JOINT LeftHand
											{
												OFFSET 18.484802 0.000000 -0.000000
												CHANNELS 3 Xrotation Yrotation Zrotation
												End Site
												{
													OFFSET 0 0 0
												}
											}
										}
									}
								}
							}
						}
						JOINT RightShoulder_virtual
						{
							OFFSET 0.000000 0.000000 0.000000
							CHANNELS 3 Xrotation Yrotation Zrotation
							JOINT RightShoulder
							{
								OFFSET -2.196100 4.412496 0.070690
								CHANNELS 3 Xrotation Yrotation Zrotation
								JOINT RightShoulder_split
								{
									OFFSET -2.196100 4.412496 0.070690
									CHANNELS 3 Xrotation Yrotation Zrotation
									JOINT RightArm
									{
										OFFSET -8.771282 -2.981682 -0.094208
										CHANNELS 3 Xrotation Yrotation Zrotation
										JOINT RightForeArm
										{
											OFFSET -8.494598 0.000000 0.000000
											CHANNELS 3 Xrotation Yrotation Zrotation
											JOINT RightHand
											{
												OFFSET -18.483803 0.000000 0.000001
												CHANNELS 3 Xrotation Yrotation Zrotation
												End Site
												{
													OFFSET 0 0 0
												}
											}
										}
									}
								}
							}
						}
					}
				}
			}
		}
	}
}
MOTION
Frames: 9
Frame Time: 0.03333333
-0.520065 30.346439 3.185583 0.000000 0.000000 0.000000 33.434391 -3.148996 -9.071980 -68.007388 5.260109 3.499108 76.390448 -10.860605 2.272253 -5.190185 4.955890 9.914535 -4.777440 0.790691 2.508416 0.000000 0.000000 0.000000 30.006472 -5.976678 -8.027649 -32.051694 -13.729187 12.703327 40.006057 1.998360 -0.991656 -33.697377 -5.684268 15.172702 -16.000360 -3.882703 0.525344 0.000000 0.000000 0.000000 32.762027 -4.344893 -9.011268 3.691163 4.431091 2.622068 -0.823931 1.415580 -0.328359 0.547861 1.307017 -0.083195 0.000000 0.000000 0.000000 -0.072095 1.342597 -0.207583 -11.557928 0.777752 2.727999 -11.294934 3.741893 -3.954534 0.000000 0.000000 0.000000 -1.019894 1.617622 -0.330000 1.329786 0.965807 -20.521375 2.551487 -2.580913 -0.154293 18.669426 -2.798931 -42.221641 3.855329 -69.223496 1.767532 0.000000 0.000000 0.000000 -0.242166 1.239351 -0.802862 1.355772 4.883515 18.572982 1.444639 1.966022 -2.885483 8.391965 -10.312652 50.799891 -0.116019 67.038006 1.850007 0.000000 0.000000 0.000000 
-0.696472 30.256226 4.026546 0.000000 0.000000 0.000000 32.285782 -4.585847 -8.421107 -70.553539 5.735202 3.897982 72.815035 -10.362496 1.771539 -4.901793 4.494012 9.166373 -4.417485 0.705726 3.161203 0.000000 0.000000 0.000000 30.592711 -7.005705 -7.633583 -30.028018 -13.279285 12.448504 41.366546 1.368088 -0.615914 -34.456221 -7.184357 16.194442 -17.061893 -3.770598 0.282418 0.000000 0.000000 0.000000 32.133219 -3.759424 -9.225552 4.236257 4.707559 2.417802 -0.814440 1.571338 -0.307791 0.440274 2.353398 -0.066808 0.000000 0.000000 0.000000 -0.160260 1.444688 -0.282063 -11.729844 0.472993 2.821646 -11.495645 3.442784 -3.724002 0.000000 0.000000 0.000000 -0.980154 1.768102 -0.346809 1.318566 0.739379 -20.109781 2.155230 -2.152982 -0.388338 18.257499 -2.923778 -42.729370 3.866685 -69.414325 1.938665 0.000000 0.000000 0.000000 -0.255780 1.383245 -0.913146 1.408321 4.952838 18.358874 1.890554 2.054318 -2.987274 8.285434 -9.908263 50.597365 -0.183155 68.405827 1.792125 0.000000 0.000000 0.000000 
-1.071530 30.169415 5.376493 0.000000 0.000000 0.000000 31.120114 -5.761011 -7.639135 -74.046279 6.452567 4.002647 68.789396 -9.786099 1.369087 -5.290379 4.590520 9.186232 -3.967019 0.683999 2.793356 0.000000 0.000000 0.000000 31.065046 -6.707875 -7.614026 -24.874243 -12.760298 12.998083 41.731940 -0.977913 -0.066371 -39.418736 -8.905359 12.338995 -14.414576 -3.022183 -0.573220 0.000000 0.000000 0.000000 30.898563 -3.512945 -8.948425 4.944796 5.130608 1.799355 -0.704951 1.857739 -0.364469 0.569507 3.067401 0.107771 0.000000 0.000000 0.000000 -0.230575 1.666807 -0.425095 -12.057246 0.183948 2.737815 -11.890424 2.874251 -3.268478 0.000000 0.000000 0.000000 -0.886674 2.016785 -0.441910 1.319703 0.609800 -19.460305 1.803502 -1.726808 -0.703486 17.829041 -3.245070 -43.545045 4.074973 -69.612277 2.381714 0.000000 0.000000 0.000000 -0.245380 1.662931 -1.066342 1.503185 5.095560 17.809660 2.347658 2.038825 -2.846698 9.022478 -9.690655 50.598881 -0.397183 70.668211 1.819146 0.000000 0.000000 0.000000 
-1.616220 30.037857 7.040836 0.000000 0.000000 0.000000 30.116268 -6.248118 -6.766518 -77.435227 7.497036 3.501882 64.559419 -8.835969 1.065316 -6.324611 5.376469 10.278718 -3.301247 0.702655 1.613958 0.000000 0.000000 0.000000 31.177143 -5.925972 -7.484469 -18.361932 -12.292999 13.641605 40.101328 -4.032278 0.434103 -45.352996 -9.374076 5.975274 -11.559801 -1.719831 -1.884898 0.000000 0.000000 0.000000 29.584561 -3.542960 -8.254357 5.724262 5.575770 0.746275 -0.549512 2.164162 -0.425283 0.754940 2.844415 0.201387 0.000000 0.000000 0.000000 -0.281902 1.969354 -0.564727 -12.449941 -0.045791 2.542581 -12.386347 2.233821 -2.690165 0.000000 0.000000 0.000000 -0.764480 2.304699 -0.538219 1.338700 0.570755 -18.671432 1.635996 -1.315911 -0.940274 17.396772 -3.546196 -44.685553 4.353712 -69.854243 2.947245 0.000000 0.000000 0.000000 -0.217610 1.989389 -1.191746 1.617034 5.263197 17.088976 2.644044 2.060452 -2.539715 10.537680 -9.755530 50.985313 -0.660071 73.367556 1.860422 0.000000 0.000000 0.000000 
-2.182629 29.894297 9.026746 0.000000 0.000000 0.000000 29.503296 -6.203095 -5.906053 -80.156846 8.912721 2.633357 60.023675 -7.466143 0.732288 -7.449489 6.525623 12.129176 -2.563030 0.666031 0.239723 0.000000 0.000000 0.000000 31.176894 -5.260479 -6.956922 -11.978519 -11.874053 13.714485 36.752797 -5.543987 0.441994 -47.382375 -8.268982 1.958516 -14.439933 0.002471 -3.416422 0.000000 0.000000 0.000000 28.598569 -3.643528 -7.254902 6.428420 5.925444 -0.664866 -0.390072 2.435642 -0.441939 1.059548 2.086476 0.277565 0.000000 0.000000 0.000000 -0.331653 2.303170 -0.648186 -12.821827 -0.204407 2.332213 -12.839025 1.749573 -2.095598 0.000000 0.000000 0.000000 -0.664791 2.594825 -0.597908 1.359873 0.605849 -17.889894 1.593641 -0.934755 -1.161145 16.924119 -3.633806 -46.092890 4.546786 -70.230710 3.445011 0.000000 0.000000 0.000000 -0.206127 2.310434 -1.224560 1.740839 5.419962 16.413660 2.521133 2.382116 -2.217547 12.497280 -10.138711 51.799895 -0.856691 76.011468 1.844763 0.000000 0.000000 0.000000 
-2.754599 29.714909 11.188258 0.000000 0.000000 0.000000 29.461198 -5.869586 -5.062388 -81.758423 10.503688 1.787669 55.127502 -6.207306 0.181962 -7.948829 7.500588 14.236298 -2.895113 0.493863 -0.406768 0.000000 0.000000 0.000000 31.215802 -4.798650 -6.163673 -6.678571 -11.529006 12.837557 33.253449 -4.421077 0.145016 -42.264688 -6.316390 2.975358 -24.393391 1.878383 -4.495111 0.000000 0.000000 0.000000 28.251361 -3.862972 -6.147993 7.028957 6.089658 -2.297597 -0.255680 2.653404 -0.408288 1.302038 1.027322 0.400840 0.000000 0.000000 0.000000 -0.391829 2.644064 -0.665142 -13.086955 -0.262543 2.178586 -13.047738 1.647217 -1.552383 0.000000 0.000000 0.000000 -0.609475 2.864951 -0.613646 1.376851 0.678844 -17.253480 1.527256 -0.573581 -1.295690 16.406623 -3.362706 -47.577264 4.555572 -70.735850 3.731484 0.000000 0.000000 0.000000 -0.244412 2.616606 -1.156445 1.845334 5.457751 15.950537 2.030992 2.912320 -1.921178 14.511478 -10.792093 53.018934 -0.835435 78.229251 1.628264 0.000000 0.000000 0.000000 
-3.274137 29.533583 13.429953 0.000000 0.000000 0.000000 29.624433 -5.630889 -4.371178 -82.374253 11.958074 1.416895 50.483065 -5.232804 -0.809179 -7.501717 7.980844 16.220548 -4.178362 0.244841 0.008217 0.000000 0.000000 0.000000 31.000156 -4.717045 -5.272956 -3.057491 -11.507729 11.213848 31.191975 -1.720558 -0.103922 -30.333287 -3.500099 7.845113 -36.318592 3.140621 -4.547084 0.000000 0.000000 0.000000 28.244111 -4.047757 -5.132600 7.524181 6.098732 -3.873840 -0.194177 2.866593 -0.346374 1.339340 0.147098 0.348699 0.000000 0.000000 0.000000 -0.461388 2.974034 -0.666169 -13.261348 -0.240286 2.100595 -12.875005 1.862531 -1.112201 0.000000 0.000000 0.000000 -0.635851 3.132090 -0.622528 1.371314 0.691741 -16.854779 1.458085 -0.373889 -1.357166 15.920792 -2.768255 -48.958355 4.201544 -71.212509 3.617882 0.000000 0.000000 0.000000 -0.349092 2.911113 -1.039739 1.905557 5.292826 15.750949 1.359567 3.557139 -1.687161 16.175309 -11.626087 54.393161 -0.476412 79.871167 1.116222 0.000000 0.000000 0.000000 
-3.653121 29.285294 15.569746 0.000000 0.000000 0.000000 29.556158 -5.708306 -3.975643 -82.155107 12.715413 1.875877 47.192434 -4.484994 -2.326618 -6.030250 8.120174 18.197953 -5.277143 -0.046558 1.142193 0.000000 0.000000 0.000000 30.570878 -4.803843 -4.584575 -1.620197 -12.055890 8.987420 32.177609 0.882838 0.061869 -15.425909 0.570784 12.935035 -44.085319 3.151204 -3.808604 0.000000 0.000000 0.000000 28.226728 -4.236306 -4.330953 7.895948 5.991467 -5.150725 -0.181593 3.109992 -0.337950 1.210943 -0.210676 0.390479 0.000000 0.000000 0.000000 -0.522343 3.282934 -0.716680 -13.357897 -0.139035 2.067002 -12.322232 2.252374 -0.832295 0.000000 0.000000 0.000000 -0.736157 3.392851 -0.673899 1.339756 0.598629 -16.731759 1.365381 -0.470327 -1.397183 15.573523 -2.060492 -49.994529 3.517862 -71.454475 3.116845 0.000000 0.000000 0.000000 -0.485338 3.203070 -0.937499 1.934186 4.929000 15.782079 0.787871 4.173478 -1.476136 17.230370 -12.455512 55.515890 0.202682 80.914225 0.343657 0.000000 0.000000 0.000000 
-3.887877 28.946693 17.568575 0.000000 0.000000 0.000000 29.038638 -5.909499 -3.760564 -81.050412 12.497647 2.758259 46.361811 -4.010724 -4.032285 -4.636177 8.164597 20.293419 -5.428422 -0.289444 2.558402 0.000000 0.000000 0.000000 29.965860 -4.521501 -4.370321 -3.074096 -13.088393 6.023523 36.421308 2.119308 0.645215 -1.760809 4.451149 15.389733 -45.165985 2.277290 -2.903740 0.000000 0.000000 0.000000 27.861907 -4.216339 -3.743510 8.178895 5.755819 -6.019616 -0.202144 3.349442 -0.412313 1.060741 -0.331138 0.461675 0.000000 0.000000 0.000000 -0.568009 3.535325 -0.838773 -13.374820 0.007255 2.017966 -11.531812 2.730279 -0.750377 0.000000 0.000000 0.000000 -0.879238 3.610193 -0.768973 1.286303 0.409100 -16.819691 1.188915 -0.771020 -1.350769 15.475750 -1.449612 -50.525454 2.759282 -71.364453 2.448715 0.000000 0.000000 0.000000 -0.610662 3.465058 -0.883200 1.927571 4.473431 15.953164 0.647845 4.569030 -1.422249 17.502694 -13.137827 56.123828 0.924970 81.302132 -0.417006 0.000000 0.000000 0.000000 
